<svg xmlns="http://www.w3.org/2000/svg" viewBox="0 0 1440 320"><path fill="#e5e7eb" fill-opacity="1" d="M0,64L34.3,58.7C68.6,53,137,43,206,85.3C274.3,128,343,224,411,261.3C480,299,549,277,617,256C685.7,235,754,213,823,208C891.4,203,960,213,1029,208C1097.1,203,1166,181,1234,170.7C1302.9,160,1371,160,1406,160L1440,160L1440,320L1405.7,320C1371.4,320,1303,320,1234,320C1165.7,320,1097,320,1029,320C960,320,891,320,823,320C754.3,320,686,320,617,320C548.6,320,480,320,411,320C342.9,320,274,320,206,320C137.1,320,69,320,34,320L0,320Z"></path></svg>