<!-- <svg xmlns="http://www.w3.org/2000/svg" viewBox="0 0 1440 320"><path fill="#ffffff61" fill-opacity="1" d="M0,288L40,256C80,224,160,160,240,160C320,160,400,224,480,250.7C560,277,640,267,720,240C800,213,880,171,960,138.7C1040,107,1120,85,1200,90.7C1280,96,1360,128,1400,144L1440,160L1440,320L1400,320C1360,320,1280,320,1200,320C1120,320,1040,320,960,320C880,320,800,320,720,320C640,320,560,320,480,320C400,320,320,320,240,320C160,320,80,320,40,320L0,320Z"></path></svg> -->
<svg xmlns="http://www.w3.org/2000/svg" viewBox="0 0 1440 320"><path fill="#3498db" fill-opacity="1" d="M0,288L40,256C80,224,160,160,240,160C320,160,400,224,480,250.7C560,277,640,267,720,240C800,213,880,171,960,138.7C1040,107,1120,85,1200,90.7C1280,96,1360,128,1400,144L1440,160L1440,320L1400,320C1360,320,1280,320,1200,320C1120,320,1040,320,960,320C880,320,800,320,720,320C640,320,560,320,480,320C400,320,320,320,240,320C160,320,80,320,40,320L0,320Z"></path></svg>